<?xml version="1.0" standalone="no"?>
<!DOCTYPE svg PUBLIC "-//W3C//DTD SVG 20010904//EN"
 "http://www.w3.org/TR/2001/REC-SVG-20010904/DTD/svg10.dtd">
<svg version="1.0" xmlns="http://www.w3.org/2000/svg"
 width="2000.000000pt" height="377.000000pt" viewBox="0 0 2000.000000 377.000000"
 preserveAspectRatio="xMidYMid meet">
<metadata>
Created by potrace 1.16, written by Peter Selinger 2001-2019
</metadata>
<g transform="translate(0.000000,377.000000) scale(0.100000,-0.100000)"
fill="#000000" stroke="none">
<path d="M14365 3230 c-33 -10 -86 -26 -117 -35 l-58 -16 0 -715 0 -714 -35 0
-35 0 0 353 -1 352 -67 145 c-58 125 -71 145 -92 148 -23 3 -30 -8 -93 -155
l-67 -158 0 -223 0 -224 -42 7 c-57 10 -58 11 -58 51 0 22 -5 34 -14 34 -10 0
-15 29 -20 123 -3 67 -9 174 -14 237 l-7 115 -6 -130 c-4 -71 -7 -178 -8 -237
l-1 -108 -135 0 -135 0 0 -35 0 -35 -145 0 -145 0 0 -250 c0 -216 -2 -250 -15
-250 -13 0 -15 24 -15 159 l0 159 -71 86 c-65 80 -73 86 -107 86 -37 0 -38 -1
-80 -85 l-42 -85 0 -150 c0 -127 -2 -150 -15 -150 -13 0 -15 24 -15 160 l0
160 -95 0 -95 0 0 130 0 130 -103 0 -103 0 -44 -45 -44 -45 -168 0 -168 0 0
-50 c0 -43 -3 -50 -20 -50 -19 0 -20 -7 -20 -180 0 -113 -4 -180 -10 -180 -6
0 -10 45 -10 115 0 96 -3 115 -15 115 -12 0 -15 16 -15 83 0 74 -3 86 -23 105
-20 19 -35 22 -112 22 -83 0 -91 -2 -117 -27 l-28 -27 0 -198 0 -198 -90 0
-90 0 0 70 0 70 -50 0 -50 0 0 145 0 145 -34 0 c-38 0 -41 5 -51 83 l-7 57
-79 0 -79 0 0 -55 c0 -52 -1 -55 -25 -55 -24 0 -25 3 -25 55 l0 55 -115 0
c-108 0 -115 1 -115 20 0 19 -7 20 -205 20 l-205 0 0 -27 c0 -26 -4 -24 -68
40 -43 42 -76 67 -90 67 -21 0 -22 3 -22 96 0 86 -2 95 -17 90 -10 -2 -109 -8
-220 -12 l-203 -7 0 -263 0 -264 -30 0 -30 0 0 73 0 73 -33 12 c-18 7 -68 12
-110 12 l-77 0 0 130 0 129 -32 6 c-18 3 -105 14 -193 24 -136 17 -172 18
-240 8 l-80 -12 -3 -238 c-2 -184 -5 -237 -15 -237 -7 0 -31 18 -52 40 -38 39
-41 40 -107 40 l-68 0 0 50 0 50 -140 0 -140 0 0 160 0 160 -34 0 -33 0 -7 61
c-3 34 -7 87 -7 118 -2 89 -16 15 -18 -91 l-1 -88 -40 0 c-22 0 -40 5 -40 10
0 6 -6 10 -14 10 -10 0 -15 29 -22 123 -7 112 -8 117 -15 67 -4 -30 -7 -85 -8
-122 -1 -53 -4 -68 -16 -68 -11 0 -15 -11 -15 -40 0 -36 -2 -40 -25 -40 l-25
0 0 -260 0 -260 -25 0 -25 0 0 135 0 135 -170 0 -170 0 0 -165 0 -165 -60 0
-60 0 0 -45 c0 -38 -3 -45 -20 -45 -19 0 -20 7 -20 235 l0 235 -25 0 -25 0 0
168 c0 163 -1 169 -23 190 -13 12 -33 22 -45 22 -21 0 -22 4 -22 108 0 100 -2
110 -23 130 -33 31 -118 31 -164 0 l-32 -23 -3 -110 -3 -110 -27 -3 -28 -3 0
-185 0 -184 -30 0 -30 0 0 -150 0 -150 -25 0 c-15 0 -25 -6 -25 -14 0 -11 -15
-16 -52 -18 l-53 -3 -10 -70 c-8 -53 -14 -71 -28 -73 -16 -3 -17 14 -17 232
l0 236 -35 0 -35 0 0 138 0 137 -41 58 c-39 54 -43 57 -83 57 -42 0 -44 -2
-80 -59 l-36 -59 0 -136 0 -136 -25 0 c-23 0 -25 -3 -25 -48 l0 -49 -80 -18
-80 -18 0 -84 0 -83 -50 0 -50 0 0 35 0 35 -140 0 -140 0 0 70 0 70 -135 0
-135 0 0 -65 0 -65 -95 0 c-88 0 -95 -1 -95 -20 0 -19 -7 -20 -125 -20 l-125
0 0 -185 0 -185 -35 0 -35 0 0 130 0 130 -190 0 -190 0 0 112 0 112 -57 58
-57 58 -81 0 -81 0 -62 -63 -62 -63 0 -172 c0 -165 -1 -172 -20 -172 -11 0
-20 7 -20 15 0 10 -10 15 -30 15 -28 0 -30 3 -30 35 l0 35 -62 0 c-35 0 -114
3 -175 7 l-113 6 0 84 c0 45 -2 83 -5 83 -2 0 -89 18 -192 40 -149 32 -209 40
-290 40 l-103 0 0 -145 c0 -122 -2 -145 -15 -145 -11 0 -15 12 -15 46 0 74
-19 124 -46 124 -13 0 -26 -5 -29 -10 -3 -5 -22 -10 -41 -10 -19 0 -34 -4 -34
-10 0 -5 -9 -10 -20 -10 -17 0 -20 -7 -20 -49 l0 -50 -37 -3 c-28 -2 -41 -9
-48 -25 -9 -21 -17 -23 -77 -23 -39 0 -68 4 -68 10 0 6 -20 10 -45 10 l-45 0
0 55 0 55 -90 0 -90 0 0 -55 0 -55 -36 0 -37 0 5 145 6 145 -157 0 -158 0 5
-135 5 -135 -82 0 -81 0 0 113 0 113 -70 69 -70 69 0 143 0 143 -125 0 -125 0
0 85 0 85 -100 0 -100 0 0 -60 0 -60 -145 0 -145 0 -1 -322 c0 -178 -3 -317
-6 -310 -7 19 -103 16 -103 -3 0 -11 -12 -15 -45 -15 -25 0 -45 -4 -45 -10 0
-6 -32 -10 -75 -10 l-75 0 0 28 c0 53 -23 62 -153 62 l-117 0 0 -655 0 -655
9515 0 9515 0 0 325 0 325 -35 0 -35 0 0 50 0 50 -45 0 -45 0 0 170 0 170 -55
0 -55 0 0 223 0 223 -33 32 c-31 30 -37 32 -108 32 -72 0 -76 -1 -107 -33
l-32 -33 0 -222 0 -222 -30 0 -30 0 0 -85 0 -85 -50 0 -50 0 0 250 0 250 -140
0 -140 0 0 -130 c0 -80 -4 -130 -10 -130 -5 0 -10 18 -10 40 0 38 -2 40 -30
40 -28 0 -30 2 -30 40 0 33 -3 40 -20 40 -16 0 -20 7 -20 35 l0 35 -60 0 -60
0 0 -80 c0 -73 -2 -80 -20 -80 -19 0 -20 7 -20 265 l0 265 -115 0 c-96 0 -115
-3 -115 -15 0 -12 -13 -15 -60 -15 -53 0 -60 2 -60 20 0 19 -7 20 -134 20
l-134 0 -11 -45 c-6 -25 -15 -45 -19 -45 -5 0 -21 14 -37 30 -25 26 -36 30
-85 30 -50 0 -59 -3 -88 -33 l-32 -33 0 -247 c0 -213 -2 -247 -15 -247 -12 0
-15 13 -15 60 0 33 -4 60 -10 60 -5 0 -10 15 -10 34 0 34 -1 35 -80 61 l-80
27 0 89 0 89 -60 0 -60 0 0 143 0 143 -47 17 c-27 9 -75 17 -109 17 -55 0 -63
-3 -92 -33 l-32 -33 0 -227 0 -227 -55 0 -55 0 0 -35 c0 -33 -2 -35 -35 -35
l-35 0 0 72 c0 64 -3 75 -27 100 -25 26 -32 28 -108 28 -76 0 -83 -2 -108 -28
l-27 -28 0 -187 0 -187 -65 0 -65 0 0 30 c0 27 -3 30 -30 30 l-30 0 0 125 0
125 -44 0 -44 0 -31 65 c-30 64 -30 65 -70 65 l-41 0 0 -60 0 -60 -75 0 -75 0
0 -85 c0 -84 0 -85 -25 -85 -21 0 -25 5 -25 30 l0 30 -60 0 c-47 0 -60 -3 -60
-15 0 -8 -7 -15 -15 -15 -10 0 -15 10 -15 30 l0 30 -60 0 -60 0 0 -135 c0
-128 -1 -135 -20 -135 -19 0 -20 7 -20 149 l0 148 -72 27 c-67 24 -86 26 -225
26 l-153 0 0 65 0 65 -110 0 -110 0 0 -65 c0 -51 -3 -65 -15 -65 -12 0 -15
-19 -15 -115 l0 -115 -25 0 -25 0 0 743 0 744 -106 41 c-58 23 -108 42 -112
41 -4 0 -34 -9 -67 -19z"/>
</g>
</svg>
