<?xml version="1.0" standalone="no"?>
<!DOCTYPE svg PUBLIC "-//W3C//DTD SVG 20010904//EN"
 "http://www.w3.org/TR/2001/REC-SVG-20010904/DTD/svg10.dtd">
<svg version="1.0" xmlns="http://www.w3.org/2000/svg"
 width="149.000000pt" height="260.000000pt" viewBox="0 0 149.000000 260.000000"
 preserveAspectRatio="xMidYMid meet">
<metadata>
Created by potrace 1.16, written by Peter Selinger 2001-2019
</metadata>
<g transform="translate(0.000000,260.000000) scale(0.100000,-0.100000)"
fill="#C800A1" stroke="none">
<path d="M698 2483 c-46 -53 -88 -179 -88 -266 0 -49 20 -129 43 -174 10 -18
17 -34 17 -37 0 -3 -30 9 -67 27 -62 29 -76 32 -163 31 -73 0 -108 -5 -151
-22 -70 -28 -181 -105 -158 -110 9 -2 32 6 50 17 45 27 53 26 33 -4 -18 -28
-11 -31 26 -10 14 8 36 14 50 14 25 0 25 0 -5 -16 l-30 -17 25 -6 c14 -4 38
-3 53 1 16 4 34 6 41 3 6 -2 29 2 49 11 46 19 53 19 36 -2 -13 -15 -12 -15 9
-4 13 7 25 11 27 9 9 -8 -36 -47 -84 -74 -103 -55 -212 -197 -235 -306 -10
-44 16 -24 44 35 l25 52 6 -40 c3 -22 7 -35 8 -29 2 16 62 97 67 91 3 -3 -2
-19 -11 -37 -9 -18 -15 -34 -13 -36 2 -2 27 17 55 41 28 24 53 42 56 39 3 -3
12 7 21 23 19 38 46 62 46 42 1 -8 7 -3 15 11 l14 25 1 -31 c0 -18 -15 -63
-32 -100 -32 -67 -33 -73 -32 -194 0 -95 4 -133 17 -160 18 -39 20 -33 17 55
l-1 50 20 -30 21 -30 0 63 c0 64 16 87 22 30 l3 -33 18 32 c9 18 17 43 17 58
0 14 5 25 10 25 6 0 10 23 10 50 0 47 12 66 23 38 3 -7 3 3 0 22 -3 27 -2 31
6 20 6 -8 11 -45 11 -82 0 -90 16 -160 53 -235 32 -66 110 -163 122 -152 3 4
-8 29 -24 57 -38 60 -39 70 -5 43 35 -28 53 -27 27 2 -11 12 -29 35 -39 52
l-19 30 33 -23 c42 -31 41 -17 -8 51 -37 53 -42 74 -11 45 11 -11 11 -9 2 9
-6 12 -16 25 -21 28 -6 3 -10 11 -10 16 0 6 14 0 32 -13 l32 -23 -22 36 c-29
47 -28 55 4 34 25 -16 25 -16 15 4 -15 26 -14 44 1 35 7 -4 2 6 -10 23 -27 39
-28 52 -2 28 24 -22 27 -3 5 35 -19 33 -19 46 0 30 19 -16 19 -9 1 35 -8 19
-11 35 -5 35 16 0 27 -40 44 -159 61 -437 70 -1075 21 -1429 l-12 -93 45 3
c43 3 46 5 52 38 14 70 29 295 29 444 0 298 -35 719 -81 985 -11 64 -23 131
-26 149 -8 43 14 40 44 -7 15 -24 24 -30 27 -20 14 43 14 44 15 27 1 -10 7
-18 15 -18 8 0 22 -20 32 -45 9 -25 23 -45 30 -45 7 0 15 -8 19 -19 5 -17 49
-71 58 -71 2 0 1 14 -1 31 -6 43 13 30 28 -19 18 -53 30 -62 30 -22 1 33 1 34
15 16 8 -11 15 -29 15 -40 1 -12 7 -32 15 -46 14 -25 14 -25 15 15 1 143 -98
319 -219 390 -46 28 -68 51 -57 62 3 3 20 -6 38 -20 18 -13 39 -22 45 -20 7 3
29 -5 49 -18 l36 -22 -12 22 c-15 28 -3 42 15 18 9 -13 14 -14 17 -6 3 9 14 6
36 -10 18 -12 32 -26 32 -31 0 -5 6 -7 14 -4 8 3 25 0 38 -7 13 -8 38 -19 55
-25 36 -13 36 -6 0 34 -34 37 -3 25 48 -20 50 -44 50 -43 27 22 -6 16 16 -1
65 -49 37 -35 39 -18 4 32 -69 101 -204 190 -306 203 -50 7 -129 44 -107 52 6
2 20 -1 31 -7 26 -14 34 -14 25 0 -5 9 1 10 22 5 28 -7 28 -7 10 13 -16 18
-17 21 -3 21 9 0 28 -5 44 -10 l28 -10 -28 25 c-32 29 -21 33 26 9 l32 -17
-19 22 c-19 21 -18 21 49 -4 37 -14 69 -24 72 -22 2 3 -8 15 -24 27 l-28 22
30 -8 c17 -4 44 -13 60 -22 l30 -14 -29 31 c-35 37 -35 37 37 12 32 -11 57
-16 57 -11 0 16 -45 40 -122 67 -136 48 -286 32 -413 -44 l-40 -24 35 32 35
31 -27 -4 c-40 -7 -34 6 8 21 24 9 32 16 24 21 -9 5 -5 12 11 25 l24 17 -27
-5 c-39 -6 -35 9 10 33 l37 21 -45 -6 -45 -5 40 20 c35 17 37 20 15 20 -19 1
-9 9 43 36 37 19 67 37 67 40 0 4 -17 3 -37 -1 -46 -8 -41 -2 23 30 l49 24
-40 1 -40 1 58 33 c62 36 66 50 9 34 -67 -19 -136 -60 -198 -120 -57 -55 -124
-157 -124 -190 0 -8 -12 -25 -26 -39 -24 -22 -26 -22 -16 -3 7 12 8 33 3 50
-7 27 -8 28 -19 9 -10 -18 -11 -18 -12 -2 0 10 5 28 11 40 11 21 10 21 -15 -2
-32 -30 -33 -20 -4 28 l22 36 -22 -19 c-22 -19 -22 -18 3 38 30 68 31 74 5 51
-23 -21 -25 -11 -5 25 22 38 18 46 -10 20 -30 -28 -31 -25 -5 36 22 51 22 64
-2 37z"/>
</g>
</svg>
