<?xml version="1.0" standalone="no"?>
<!DOCTYPE svg PUBLIC "-//W3C//DTD SVG 20010904//EN"
 "http://www.w3.org/TR/2001/REC-SVG-20010904/DTD/svg10.dtd">
<svg version="1.0" xmlns="http://www.w3.org/2000/svg"
 width="131.000000pt" height="234.000000pt" viewBox="0 0 131.000000 234.000000"
 preserveAspectRatio="xMidYMid meet">
<metadata>
Created by potrace 1.16, written by Peter Selinger 2001-2019
</metadata>
<g transform="translate(0.000000,234.000000) scale(0.100000,-0.100000)"
fill="#C800A1" stroke="none">
<path d="M829 1886 c-141 -50 -231 -180 -230 -331 l0 -71 -71 36 c-66 32 -79
35 -157 35 -76 -1 -93 -5 -146 -32 -58 -30 -151 -113 -128 -113 7 0 15 4 18
10 3 5 15 15 27 21 18 10 19 8 13 -12 l-7 -22 30 22 c38 26 66 28 32 1 -29
-23 -13 -26 35 -6 18 8 36 12 39 9 3 -3 12 0 21 7 8 7 27 14 41 16 19 2 24 -1
20 -13 -5 -11 -2 -13 11 -8 10 4 28 9 39 10 12 2 31 8 42 14 27 14 35 14 26
-1 -5 -7 -2 -9 9 -5 8 3 28 2 44 -3 15 -4 20 -9 11 -9 -36 -2 -125 -50 -165
-89 -23 -23 -54 -65 -69 -93 -31 -62 -50 -170 -35 -196 9 -15 11 -14 11 12 1
17 5 39 9 49 7 19 8 18 16 -5 7 -22 8 -21 15 16 4 22 8 32 9 23 2 -34 18 -18
24 23 3 23 10 45 15 48 5 3 12 13 15 21 3 9 6 2 7 -15 l2 -30 11 35 c7 25 12
30 15 17 4 -18 4 -18 18 0 7 10 14 26 14 36 0 10 5 15 10 12 6 -4 8 -42 4
-104 -7 -105 4 -160 47 -230 26 -42 34 -35 14 12 -15 38 -10 47 14 24 11 -10
11 -8 2 10 -17 32 -15 48 4 33 14 -11 14 -10 5 16 -6 16 -13 36 -17 44 -8 18
-11 60 -5 60 3 0 11 -8 19 -17 12 -16 13 -15 7 11 -5 21 -4 27 5 22 11 -7 16
10 13 47 -1 11 2 15 9 11 8 -4 9 3 4 26 -5 25 -4 31 5 25 10 -6 11 -1 6 19 -4
17 -3 25 3 22 5 -4 12 7 16 24 4 16 10 30 14 30 5 0 20 -37 34 -82 83 -264
132 -591 144 -966 l6 -203 31 3 c30 3 31 4 34 63 13 237 -86 803 -194 1105
-40 111 -40 114 -14 100 11 -6 20 -8 20 -4 0 3 7 1 15 -6 12 -10 15 -9 15 6 1
17 3 16 21 -6 11 -13 27 -25 36 -26 8 -1 24 -11 35 -21 20 -18 21 -18 14 7 -7
24 -6 24 8 6 9 -11 16 -16 16 -11 0 4 8 1 18 -8 28 -26 106 -76 111 -72 2 3
-2 11 -9 20 -7 9 -11 18 -8 21 3 3 17 -9 32 -26 25 -30 26 -31 26 -8 l1 23 19
-23 c10 -12 20 -28 23 -35 2 -6 7 -9 11 -5 9 8 -25 76 -60 117 -35 42 -99 85
-154 104 -30 11 -37 16 -22 17 13 0 21 4 18 9 -9 14 21 21 47 12 12 -5 47 -12
77 -16 52 -7 54 -7 40 10 -14 17 -13 18 5 13 11 -3 29 -9 40 -13 16 -7 18 -6
8 6 -25 26 -13 31 23 10 48 -28 54 -21 12 14 -55 46 -115 68 -203 73 -85 4
-154 -14 -216 -59 -15 -10 -30 -19 -33 -19 -13 0 2 44 19 56 14 10 15 14 4 14
-8 1 -2 11 16 26 28 24 28 25 6 19 -16 -5 -21 -4 -17 4 4 6 14 11 22 11 8 0
14 7 14 15 0 8 6 15 13 16 6 0 3 4 -8 8 -18 7 -17 9 10 24 30 16 30 16 5 17
-20 0 -22 2 -10 10 8 5 11 10 5 10 -5 1 13 13 40 27 41 21 47 27 31 33 -16 5
-14 8 15 20 33 14 33 14 9 21 -25 7 -25 7 8 20 17 7 32 17 32 21 0 11 -8 10
-51 -6z"/>
</g>
</svg>
