<svg width="50" height="50" viewBox="0 0 50 50" fill="none" xmlns="http://www.w3.org/2000/svg">
<path d="M47.7722 9.0625C49.6624 7.17237 49.6624 4.10282 47.7722 2.2127C45.8821 0.322575 42.8126 0.322575 40.9224 2.2127L25.0001 18.1502L9.06256 2.22782C7.17243 0.337695 4.10288 0.337695 2.21276 2.22782C0.322636 4.11794 0.322636 7.18749 2.21276 9.07761L18.1503 25L2.22788 40.9375C0.337757 42.8276 0.337757 45.8972 2.22788 47.7873C4.118 49.6774 7.18756 49.6774 9.07768 47.7873L25.0001 31.8498L40.9376 47.7722C42.8277 49.6623 45.8972 49.6623 47.7874 47.7722C49.6775 45.882 49.6775 42.8125 47.7874 40.9224L31.8499 25L47.7722 9.0625Z" fill="black"/>
</svg>
