<?xml version="1.0" standalone="no"?>
<!DOCTYPE svg PUBLIC "-//W3C//DTD SVG 20010904//EN"
 "http://www.w3.org/TR/2001/REC-SVG-20010904/DTD/svg10.dtd">
<svg version="1.0" xmlns="http://www.w3.org/2000/svg"
 width="588.670046pt" height="590.128472pt" viewBox="0 0 588.670046 590.128472"
 preserveAspectRatio="xMidYMid meet">
<metadata>
Created by potrace 1.12, written by Peter Selinger 2001-2015
</metadata>
<g transform="translate(-6.805944,594.692580) scale(0.100000,-0.100000)"
fill="#000000" stroke="none">
<path d="M2795 5944 c-627 -62 -1125 -252 -1597 -610 -133 -101 -431 -399
-532 -532 -330 -435 -531 -929 -598 -1472 -17 -136 -17 -534 0 -670 58 -469
222 -916 475 -1296 122 -185 200 -278 376 -455 177 -176 270 -253 456 -377
161 -108 455 -259 466 -240 4 7 12 105 18 218 12 203 32 489 51 710 13 150 13
271 0 364 -10 67 -9 79 8 113 30 58 69 190 81 273 6 41 23 201 37 355 15 154
28 281 29 283 1 1 26 -2 55 -8 29 -5 74 -10 100 -10 62 0 193 34 239 62 l36
23 -34 -45 c-62 -83 -167 -248 -205 -322 -49 -97 -55 -139 -26 -166 31 -29 54
-12 75 53 39 118 162 305 373 561 l83 102 86 18 86 18 24 -30 c94 -113 106
-125 125 -122 12 2 27 13 35 24 13 20 9 28 -50 105 -118 155 -217 325 -217
372 0 14 -7 30 -15 37 -11 9 -13 16 -5 24 14 14 12 51 -4 65 -7 6 -38 18 -67
27 -74 22 -153 103 -205 210 -33 69 -38 89 -41 162 -2 67 2 96 21 145 20 53
32 68 85 109 34 27 68 48 74 48 7 0 32 -30 57 -67 57 -89 403 -435 487 -488
60 -38 66 -46 127 -160 78 -147 126 -272 165 -430 49 -197 81 -265 127 -265
42 0 46 30 14 106 -15 38 -31 85 -35 104 l-6 36 54 17 c69 22 70 22 63 -10 -9
-33 -36 -406 -36 -491 0 -49 -6 -73 -24 -105 -14 -23 -63 -136 -111 -251 -101
-245 -151 -347 -244 -499 -38 -62 -102 -168 -142 -237 l-74 -125 3 -355 c3
-340 15 -537 45 -730 l12 -74 50 2 c172 10 443 61 635 118 341 103 711 297
990 520 109 87 377 355 464 464 287 360 496 810 586 1260 44 222 55 334 55
585 0 251 -11 363 -55 585 -90 450 -299 899 -586 1260 -87 109 -355 377 -464
464 -415 330 -924 547 -1461 621 -108 15 -506 28 -594 19z m380 -224 c564 -41
1074 -238 1515 -584 110 -86 384 -366 466 -476 193 -258 328 -513 423 -801
203 -615 179 -1293 -66 -1889 -89 -216 -239 -472 -387 -660 -76 -97 -339 -360
-436 -436 -125 -98 -312 -218 -447 -287 -321 -163 -580 -240 -979 -291 l-31
-4 -8 61 c-4 34 -10 229 -15 432 l-8 370 30 59 c16 32 84 149 150 260 135 224
171 295 288 576 45 107 92 220 105 250 20 47 25 84 34 245 15 261 20 307 37
389 24 115 32 115 99 -5 164 -295 249 -420 370 -548 160 -167 277 -226 450
-226 154 1 259 45 366 157 107 111 142 224 142 453 0 178 -8 238 -58 435 -66
262 -102 352 -335 830 -98 201 -183 387 -189 414 -35 143 -151 284 -295 356
-32 16 -91 61 -131 99 -55 52 -83 72 -112 77 -21 4 -63 16 -93 28 -121 46
-286 15 -401 -76 -28 -22 -51 -38 -52 -36 -37 73 -45 82 -91 105 -52 27 -60
27 -178 0 -80 -19 -97 -27 -169 -82 l-56 -44 -17 30 c-22 37 -60 57 -148 75
-107 22 -203 -1 -259 -63 -79 -87 -139 -219 -139 -305 0 -21 -4 -38 -10 -38
-5 0 -12 17 -16 38 -10 57 -58 145 -98 180 -45 40 -91 48 -169 31 -52 -12 -70
-22 -110 -61 -51 -51 -60 -68 -86 -169 l-17 -66 -79 53 c-94 63 -133 78 -178
69 -96 -21 -157 -90 -183 -205 -15 -65 -18 -70 -38 -64 -123 40 -181 42 -286
13 -81 -22 -125 -47 -209 -118 -45 -38 -62 -64 -102 -148 -26 -56 -63 -123
-82 -150 -115 -161 -151 -346 -103 -526 14 -50 14 -82 5 -235 -20 -307 1 -674
51 -917 75 -366 168 -592 295 -721 86 -87 138 -118 246 -145 133 -34 280 -6
379 72 28 22 54 38 57 35 9 -9 5 -305 -6 -401 -6 -49 -17 -193 -26 -320 -9
-126 -18 -232 -20 -234 -13 -12 -269 146 -425 263 -122 91 -415 384 -506 506
-194 260 -328 514 -423 801 -183 555 -183 1153 0 1708 95 288 230 543 423 801
82 110 356 390 466 476 538 423 1209 632 1875 584z m341 -818 c12 -9 27 -27
33 -39 25 -50 12 -78 -106 -216 -130 -154 -135 -158 -183 -168 -83 -15 -124
-11 -149 15 -37 39 -44 91 -25 184 7 34 140 179 186 203 78 40 208 51 244 21z
m-526 -30 c71 -34 74 -118 10 -304 -62 -184 -87 -217 -174 -233 -55 -11 -162
21 -186 56 -22 30 -28 137 -11 181 5 13 14 52 21 88 8 45 22 80 46 113 19 26
34 51 34 55 0 15 38 43 77 58 46 17 133 11 183 -14z m1115 17 c26 -7 67 -35
115 -79 41 -37 104 -82 140 -100 122 -62 214 -180 248 -321 7 -26 85 -195 175
-376 224 -453 309 -672 368 -953 31 -145 34 -437 5 -520 -39 -115 -121 -210
-224 -258 -51 -24 -69 -27 -168 -27 -107 0 -112 1 -186 37 -174 87 -318 267
-561 703 -47 85 -62 104 -100 124 l-44 24 -51 -41 c-54 -42 -137 -86 -185 -96
-23 -5 -29 -2 -37 19 -16 43 -12 65 11 65 36 0 129 52 166 93 56 62 78 120 78
207 0 55 -6 87 -22 121 -89 195 -338 245 -492 100 l-34 -32 -40 28 c-50 34
-194 169 -187 175 3 2 79 21 170 42 91 21 178 45 193 53 16 8 35 29 43 48 13
31 10 49 -41 263 -30 127 -55 237 -55 244 1 13 34 58 43 58 2 0 10 -28 17 -62
14 -65 37 -98 70 -98 19 0 60 36 60 53 0 17 -42 192 -50 206 -5 9 11 37 43 80
27 36 53 68 57 71 4 3 16 23 26 45 16 34 28 44 78 63 120 48 281 66 371 41z
m-1738 -164 c47 -33 93 -187 93 -315 0 -119 -27 -144 -160 -145 -98 0 -134 15
-154 66 -32 79 -12 263 36 334 46 68 133 97 185 60z m-474 -213 c29 -22 66
-46 82 -55 51 -28 72 -51 79 -85 5 -29 2 -34 -21 -43 -15 -5 -44 -26 -66 -45
-55 -50 -99 -67 -143 -55 -36 10 -89 45 -124 84 -45 47 -5 185 65 225 37 21
74 13 128 -26z m-314 -252 c24 -11 46 -19 48 -16 2 2 19 -10 36 -26 18 -16 44
-36 58 -43 23 -12 30 -29 49 -107 13 -51 30 -101 38 -110 20 -24 57 -23 82 2
23 23 23 19 5 95 -19 77 -20 71 14 83 l30 11 30 -130 c17 -71 45 -188 62 -261
26 -108 37 -137 60 -160 35 -36 54 -35 207 2 68 17 129 30 135 30 7 0 25 -30
42 -67 59 -132 168 -240 260 -257 29 -6 35 -11 30 -24 -4 -9 -9 -24 -12 -32
-6 -23 30 -115 81 -200 36 -62 41 -76 27 -78 -44 -9 -248 -54 -262 -58 -9 -3
-28 -21 -41 -42 -96 -145 -250 -210 -423 -178 -44 8 -88 17 -97 21 -12 5 -23
-4 -41 -32 -23 -35 -27 -62 -51 -318 -14 -154 -31 -318 -37 -365 -12 -103 -59
-248 -100 -312 -68 -105 -173 -168 -294 -176 -181 -11 -336 98 -432 307 -73
159 -149 443 -179 672 -20 158 -29 579 -16 767 9 124 8 149 -5 185 -11 29 -17
77 -17 152 -1 131 16 193 80 293 24 37 67 114 96 172 54 110 58 115 124 155
101 61 323 85 413 45z"/>
<path d="M3959 4597 c-68 -45 -84 -124 -37 -189 75 -106 241 -52 241 78 0 105
-117 169 -204 111z"/>
<path d="M4269 4407 c-89 -59 -86 -172 4 -227 63 -39 148 -15 183 51 63 122
-74 252 -187 176z"/>
<path d="M3750 4272 c-49 -49 -60 -97 -33 -149 28 -54 65 -78 121 -78 128 0
183 149 87 234 -30 26 -44 31 -87 31 -45 0 -54 -4 -88 -38z"/>
<path d="M4067 4090 c-19 -16 -40 -43 -47 -60 -24 -57 9 -133 70 -165 85 -44
190 22 190 120 0 113 -131 178 -213 105z"/>
<path d="M1290 3979 c-41 -11 -80 -27 -86 -34 -8 -11 -6 -36 8 -97 18 -78 22
-86 74 -135 83 -80 110 -72 154 45 19 49 19 51 -1 133 -18 78 -37 110 -63 108
-6 0 -45 -10 -86 -20z"/>
<path d="M1611 3772 c-54 -15 -71 -25 -112 -70 -30 -33 -49 -63 -49 -77 0 -28
36 -56 102 -79 45 -15 53 -15 130 4 115 27 115 27 86 141 l-23 94 -35 2 c-19
1 -64 -6 -99 -15z"/>
<path d="M1090 3649 c-105 -28 -106 -30 -85 -125 28 -127 29 -128 153 -98 53
13 76 25 109 57 45 44 69 88 59 112 -6 17 -93 60 -136 69 -14 2 -59 -4 -100
-15z"/>
<path d="M1382 3528 c-15 -20 -44 -79 -53 -111 -10 -34 22 -183 44 -205 12
-12 26 -11 96 4 121 26 120 24 98 131 -16 76 -23 93 -55 126 -58 60 -108 81
-130 55z"/>
<path d="M2185 3379 c-98 -12 -182 -75 -232 -172 -36 -69 -39 -178 -6 -248 65
-142 222 -217 365 -175 173 50 270 252 199 411 -57 129 -187 202 -326 184z"/>
</g>
</svg>
